<svg width="512" height="512" viewBox="0 0 512 512" fill="none" xmlns="http://www.w3.org/2000/svg">
<path d="M348.368 450.865C347.274 450.865 346.183 450.835 345.107 450.78H115.485L118.351 448.359C126.679 441.326 138.473 427.126 141.666 416.423C137.733 418.726 132.563 420.006 126.948 420.006C114.263 420.006 100.802 413.457 98.6209 398.87C82.0052 398.664 65.8253 374.227 62.2928 344.072C54.7891 339.865 51.4935 334.168 51.6222 325.683C51.6602 322.121 53.0901 318.92 55.6518 316.558C57.2075 315.12 59.1521 314.038 61.4301 313.337C62.4244 313.031 63.4829 312.794 64.6497 312.618C65.0737 311.811 65.6469 310.822 66.2405 309.792C67.0447 308.405 68.5098 305.876 68.6618 305.236C69.0712 303.502 68.6384 300.756 68.1325 297.573C66.9774 290.261 65.4071 280.303 71.1328 268.888C68.2466 263.357 61.2342 247.147 68.3548 231.58C69.4514 229.18 71.4311 227.284 73.8524 226.287C76.1216 219.856 84.1282 209.863 93.7871 206.999L93.828 206.897C95.2346 203.437 99.4689 193.034 113.04 185.441C113.049 185.059 113.052 184.657 113.055 184.329C113.076 181.098 113.108 176.7 115.418 171.619C117.863 166.241 122.272 161.544 128.899 157.263C133.642 154.2 138.636 152.513 143.467 150.882C145.728 150.122 147.863 149.4 149.795 148.582C151.041 148.057 152.269 147.517 153.568 146.947C161.244 143.576 169.885 139.783 181.606 138.844C181.892 138.823 182.185 138.812 182.48 138.812H182.62C177.02 128.904 170.441 117.253 166.999 111.112C164.192 106.107 165.747 99.7288 170.54 96.5953C172.321 95.4335 174.374 94.8203 176.488 94.8203C179.889 94.8203 183.141 96.4575 185.188 99.1977L204.605 125.21C205.292 123.573 206.371 122.123 207.778 120.979L208.693 120.24L203.517 99.4882C202.169 94.0839 205.09 88.5945 210.31 86.7256C211.474 86.306 212.696 86.0919 213.936 86.0919C218.062 86.0919 221.87 88.5153 223.639 92.2649L232.605 111.324L233.584 111.256C233.81 111.242 234.067 111.233 234.289 111.233C237.901 111.233 241.22 113.046 243.194 115.98L245.936 69.9024C246.276 64.1901 251.013 59.7129 256.718 59.7129C262.423 59.7129 267.158 64.1901 267.497 69.9024L270.24 115.945C272.214 113.031 275.524 111.233 279.118 111.233C279.343 111.233 279.595 111.242 279.82 111.256L280.802 111.324L289.771 92.259C291.537 88.5124 295.345 86.0919 299.471 86.0919C300.711 86.0919 301.927 86.306 303.085 86.7227C308.311 88.5916 311.238 94.0839 309.89 99.4882L304.714 120.24L305.629 120.982C307.021 122.112 308.098 123.549 308.785 125.175L328.175 99.1948C330.222 96.4545 333.474 94.8203 336.875 94.8203C338.986 94.8203 341.039 95.4306 342.817 96.5924C347.61 99.7258 349.169 106.104 346.364 111.112C342.893 117.303 336.355 128.88 330.974 138.398C331.845 138.636 333.775 139.096 341.765 140.15C350.175 141.259 354.766 144.131 359.205 146.909C360.696 147.842 362.989 148.576 366.785 149.79C368.685 150.398 370.835 151.087 373.426 151.973C382.517 155.095 388.091 160.2 390.471 167.585C391.851 171.877 391.904 176.299 391.652 180.503C393.284 180.711 395.805 181.225 398.89 182.709C403.814 185.071 408.786 189.208 413.663 194.996C417.284 199.301 419.904 204.491 421.816 208.724C423.205 208.736 424.559 209.024 425.843 209.578C433.358 212.841 443.748 225.776 446.64 239.126C449.123 250.565 448.585 263.818 445.202 274.571C444.321 277.367 443.231 280.01 441.883 282.612C446.558 285.843 449.465 290.566 450.111 296.044C450.687 300.914 449.453 306.163 446.778 310.488C452.755 311.726 457.571 316.54 459.118 323.083C460.177 327.563 459.589 332.284 457.46 336.38C455.17 340.778 451.205 344.272 445.971 346.516C441.862 354.332 423.694 387.377 410.417 387.383C410.09 387.38 409.765 387.363 409.447 387.324C409.391 389.466 408.613 392.298 407.54 394.777C405.484 399.521 399.068 410.55 383.894 410.55C382.956 410.55 381.994 410.505 381.014 410.42C384.979 421.602 384.57 430.838 379.792 437.897C371.87 449.6 355.178 450.865 348.368 450.865Z" fill="#201F2D"/>
<path d="M256.717 58.3413C250.289 58.3413 244.953 63.3848 244.57 69.8218L242.02 112.66C239.891 110.888 237.171 109.861 234.288 109.861C234.036 109.861 233.75 109.87 233.501 109.888L233.443 109.891L224.875 91.6825C222.88 87.4518 218.588 84.7232 213.935 84.7232C212.537 84.7232 211.163 84.9638 209.847 85.4362C203.963 87.5428 200.671 93.7275 202.191 99.8213L207.157 119.725L206.92 119.916C205.94 120.711 205.098 121.641 204.417 122.671L186.283 98.3777C183.979 95.2913 180.318 93.4487 176.487 93.4487C174.11 93.4487 171.793 94.1412 169.796 95.4468C164.401 98.9733 162.649 106.15 165.808 111.786C169.03 117.536 175.007 128.122 180.356 137.581C168.983 138.681 160.541 142.387 153.067 145.673L154.023 148.243L152.929 145.731C151.669 146.283 150.476 146.808 149.265 147.319C147.393 148.111 145.276 148.827 143.03 149.584C138.121 151.241 133.044 152.955 128.158 156.112C121.306 160.536 116.733 165.424 114.174 171.051C111.744 176.4 111.709 181.156 111.688 184.304C111.688 184.409 111.685 184.521 111.685 184.638C98.8244 192.088 94.3766 201.969 92.7653 205.883C83.2439 209.025 75.3572 218.681 72.775 225.267C70.2923 226.444 68.2688 228.48 67.1137 231.006C59.9902 246.577 66.4762 262.684 69.6051 268.901C64.0432 280.443 65.6223 290.427 66.7832 297.788C67.2453 300.702 67.681 303.454 67.333 304.921C67.14 305.513 65.7451 307.922 65.0754 309.078C64.6046 309.891 64.1514 310.671 63.7654 311.372C62.7945 311.545 61.8909 311.76 61.0283 312.027C58.5573 312.787 56.4372 313.972 54.7265 315.547C51.887 318.167 50.2992 321.723 50.2582 325.555C50.1208 334.477 53.4515 340.477 61.0195 344.922C64.7158 374.748 80.729 398.941 97.4763 400.191C99.6899 411.1 109.308 421.377 126.95 421.377C131.433 421.377 135.655 420.588 139.252 419.127C135.094 429.052 124.885 441.049 117.469 447.313L111.738 452.151H345.182C346.135 452.207 347.249 452.236 348.366 452.236C363.219 452.236 375.085 447.293 380.922 438.67C385.677 431.649 386.355 422.659 382.954 411.909C383.27 411.918 383.583 411.921 383.896 411.921C399.88 411.921 406.632 400.312 408.793 395.321C409.024 394.787 410.302 391.745 410.7 388.749C424.266 388.329 441.364 358.183 446.958 347.583C452.262 345.206 456.301 341.568 458.669 337.015C460.953 332.629 461.585 327.568 460.447 322.765C458.933 316.357 454.497 311.478 448.841 309.621C451.046 305.372 452.011 300.473 451.47 295.884C450.821 290.395 448.063 285.612 443.624 282.192C444.77 279.856 445.718 277.48 446.505 274.983C449.955 264.013 450.508 250.499 447.978 238.834C444.952 224.874 434.369 211.786 426.386 208.321C425.207 207.81 423.976 207.499 422.713 207.394C420.797 203.228 418.218 198.284 414.706 194.112C409.706 188.174 404.582 183.919 399.479 181.47C396.997 180.278 394.865 179.671 393.081 179.343C393.254 175.376 393.081 171.239 391.771 167.164C389.25 159.342 383.396 153.949 373.869 150.678C371.269 149.786 369.114 149.097 367.204 148.486C363.502 147.301 361.274 146.588 359.929 145.746C355.578 143.023 350.647 139.94 341.942 138.79C337.134 138.156 334.543 137.739 333.075 137.461C338.266 128.277 344.278 117.63 347.556 111.786C350.712 106.15 348.96 98.9733 343.562 95.4438C341.564 94.1382 339.251 93.4487 336.874 93.4487C333.046 93.4487 329.385 95.2913 327.081 98.3748L308.968 122.641C308.289 121.623 307.459 120.702 306.488 119.916L306.251 119.725L311.216 99.8242C312.734 93.7275 309.436 87.5398 303.543 85.4303C302.242 84.9609 300.87 84.7232 299.47 84.7232C294.82 84.7232 290.527 87.4518 288.536 91.6708L279.965 109.891L279.918 109.888C279.655 109.87 279.368 109.861 279.117 109.861C276.248 109.861 273.54 110.879 271.411 112.64L268.861 69.8218C268.481 63.3848 263.145 58.3413 256.717 58.3413ZM256.717 61.0845C261.7 61.0845 265.838 64.9926 266.133 69.9861L269.18 121.163C269.578 120.356 270.04 119.355 270.531 118.235C272.026 114.814 275.394 112.604 279.117 112.604C279.313 112.604 279.535 112.61 279.731 112.622L281.638 112.757L291.007 92.8444C292.551 89.576 295.873 87.4635 299.47 87.4635C300.555 87.4635 301.616 87.6484 302.622 88.0122C307.187 89.6464 309.74 94.4375 308.564 99.1582L303.178 120.758L304.768 122.049C306.687 123.604 307.897 125.836 308.207 128.236L329.268 100.018C331.058 97.6208 333.903 96.192 336.874 96.192C338.722 96.192 340.518 96.726 342.07 97.744C346.264 100.484 347.626 106.062 345.173 110.439C341.509 116.976 334.423 129.518 328.894 139.297C329.557 139.426 330.055 139.564 330.458 139.679C331.265 139.902 332.914 140.365 341.585 141.509C349.703 142.58 354.165 145.373 358.484 148.073C360.116 149.094 362.47 149.848 366.368 151.098C368.263 151.702 370.404 152.388 372.983 153.272C381.639 156.244 386.934 161.064 389.169 168.009C390.517 172.19 390.578 176.549 390.201 181.734C391.66 181.851 394.517 182.127 398.301 183.943C403.05 186.226 407.869 190.242 412.618 195.884C416.3 200.256 418.99 205.719 420.946 210.131C421.213 210.108 421.473 210.096 421.727 210.096C422.961 210.096 424.163 210.345 425.301 210.838C432.512 213.969 442.501 226.473 445.306 239.415C447.739 250.634 447.212 263.623 443.899 274.158C442.919 277.265 441.668 280.191 440.083 283.078C445.034 286.085 448.107 290.723 448.756 296.207C449.458 302.154 447.215 307.89 444.37 311.563C450.789 311.865 456.158 316.498 457.789 323.399C458.775 327.559 458.225 331.945 456.248 335.745C454.04 339.984 450.154 343.332 444.99 345.441C444.841 345.717 424.093 386.012 410.413 386.012C409.483 386.012 408.586 385.824 407.729 385.428C409.609 387.446 404.536 409.181 383.896 409.181C382.335 409.181 380.685 409.055 378.942 408.788C390.987 439.265 368.582 449.493 348.366 449.493C347.299 449.493 346.232 449.467 345.182 449.411H119.23C128.09 441.926 142.32 425.042 143.744 413.238C139.831 416.747 133.556 418.637 126.95 418.637C114.694 418.637 101.313 412.141 99.8245 397.469C99.494 397.489 99.1665 397.501 98.8331 397.501C83.6855 397.501 66.9908 374.258 63.5695 343.211C55.0189 338.649 52.8813 332.723 52.9895 325.708V325.584C53.0246 322.518 54.2966 319.67 56.5775 317.566C57.9841 316.269 59.7504 315.289 61.8295 314.647C62.9495 314.303 64.1689 314.051 65.5463 313.878C65.9586 313.012 66.6809 311.766 67.4383 310.457C68.4881 308.644 69.7952 306.385 69.9911 305.554C70.4649 303.559 70.0087 300.687 69.4852 297.357C68.336 290.087 66.7686 280.164 72.6785 268.877C69.8625 263.696 62.5138 247.633 69.5964 232.15C70.6433 229.862 72.5762 228.131 74.9419 227.342C76.8953 220.899 85.2909 210.615 94.7918 208.142C94.8766 207.951 94.9907 207.67 95.0959 207.414C96.485 203.993 100.693 193.66 114.373 186.272C114.411 185.727 114.417 184.908 114.422 184.321C114.443 181.229 114.472 177.004 116.662 172.187C118.993 167.055 123.239 162.549 129.637 158.418C134.237 155.446 139.15 153.788 143.902 152.183C146.197 151.409 148.364 150.678 150.326 149.845C151.578 149.317 152.812 148.777 154.116 148.202L154.163 148.184C161.687 144.878 170.22 141.131 181.716 140.213C181.964 140.192 182.224 140.183 182.479 140.183C182.868 140.183 183.409 140.183 185.111 140.436C179.265 130.096 171.902 117.064 168.191 110.442C165.734 106.062 167.097 100.484 171.288 97.744C172.84 96.7289 174.639 96.192 176.487 96.192C179.461 96.192 182.303 97.6237 184.096 100.021L205.191 128.283C205.49 125.869 206.703 123.615 208.639 122.046L210.23 120.758L204.841 99.1552C203.665 94.4375 206.215 89.6493 210.771 88.018C211.789 87.6513 212.853 87.4635 213.935 87.4635C217.535 87.4635 220.86 89.5789 222.404 92.8532L231.767 112.757L233.68 112.622C233.873 112.61 234.095 112.604 234.288 112.604C238.01 112.604 241.379 114.811 242.871 118.229C243.362 119.347 243.841 120.371 244.251 121.198L247.298 69.9861C247.596 64.9926 251.734 61.0845 256.717 61.0845Z" fill="#DBD7D2"/>
<path d="M253.279 190.571C253.192 190.336 253.124 190.087 253.089 189.825L253.077 189.723L252.849 187.288C246.053 187.261 239.86 187.757 234.576 188.488L237.474 193.742C241.693 192.237 247.086 191.099 253.279 190.571Z" fill="#E8E9EF"/>
<path d="M285.546 193.162C299.34 196.46 313.894 202.821 327.141 213.6C314.18 202.53 300.106 195.803 286.47 191.924L285.546 193.162Z" fill="#E8E9EF"/>
<path d="M259.777 189.827C259.757 189.974 259.725 190.115 259.69 190.253C264.965 190.173 270.661 190.525 276.601 191.42L277.516 189.757C271.469 188.536 265.582 187.832 259.994 187.509L259.777 189.827Z" fill="#E8E9EF"/>
<path d="M273.703 196.67L273.987 196.16C272.171 196.204 270.431 196.336 268.785 196.556C270.554 196.57 272.188 196.611 273.703 196.67Z" fill="#E8E9EF"/>
<path d="M187.834 181.762C186.439 183.458 185.255 185.339 184.485 187.439C190.881 186.659 207.344 181.161 206.52 181.806C194.951 186.641 185.945 192.926 183.637 194.601C183.848 197.412 183.851 200.231 183.36 202.772C194.185 193.281 206.409 187.381 215.784 183.722C216.237 183.552 216.69 183.379 217.144 183.203C217.255 183.159 217.366 183.118 217.474 183.077L217.465 183.074C217.734 182.968 218.003 182.865 218.272 182.757C218.653 182.604 219.03 182.446 219.407 182.284L214.392 175.404C205.695 178.875 196.764 181.011 187.834 181.762Z" fill="#7E828E"/>
<path d="M249.85 154.05C249.575 152.047 248.496 150.301 246.94 149.195C246.92 149.224 246.902 149.254 246.882 149.283C242.399 155.685 235.231 163.838 224.76 170.219L228.725 177.569C236.843 172.745 244.13 166.417 250.288 158.833L249.85 154.05Z" fill="#7E828E"/>
<path d="M327.248 187.48C327.248 187.48 327.561 183.818 327.783 181.941C327.286 181.911 326.786 181.885 326.286 181.85C316.989 181.181 307.684 179.007 298.628 175.386C298.599 175.377 298.572 175.363 298.546 175.354L293.531 182.234C293.949 182.41 294.37 182.586 294.791 182.756C295.081 182.874 295.373 182.985 295.663 183.1H295.654C295.762 183.141 295.873 183.185 295.984 183.226C296.403 183.39 296.824 183.551 297.248 183.71C306.406 187.275 318.296 192.981 328.947 202.103C327.941 199.585 327.42 196.954 327.215 194.222C324.265 192.124 315.685 186.33 304.862 181.806C304.02 181.149 321.127 186.87 327.248 187.48Z" fill="#7E828E"/>
<path d="M288.181 170.144C277.777 163.774 270.648 155.659 266.182 149.28C266.153 149.236 266.124 149.192 266.092 149.148C264.504 150.252 263.398 152.021 263.121 154.051L262.691 158.731C268.835 166.321 276.11 172.658 284.216 177.496L288.181 170.144Z" fill="#7E828E"/>
<path d="M232.074 146.843C231.907 146.828 231.764 146.729 231.688 146.582L224.079 132.012C222.93 129.812 220.707 128.424 218.277 128.392L214.446 128.342C214.18 128.339 213.949 128.172 213.859 127.913C213.768 127.649 213.847 127.368 214.063 127.195L216.561 125.167C218.669 123.457 219.602 120.631 218.935 117.964L213.286 95.3173C213.218 95.0416 213.359 94.7716 213.625 94.6777C213.666 94.6748 213.707 94.6719 213.742 94.6719C214.043 94.6719 214.198 94.7834 214.277 94.9506L224.231 116.107C225.36 118.501 227.661 119.989 230.24 119.989C230.39 119.989 230.545 119.983 230.697 119.971L234.083 119.736C234.331 119.736 234.519 119.86 234.606 120.056C234.697 120.27 234.65 120.514 234.481 120.675L231.393 123.615C229.658 125.267 228.878 127.767 229.354 130.14L232.597 146.25C232.644 146.5 232.513 146.732 232.279 146.817L232.106 146.843H232.074Z" fill="#D1D5E5"/>
<path d="M213.804 94.4751C213.722 94.4751 213.643 94.4898 213.567 94.5162C213.222 94.6394 213.032 95.0003 213.119 95.3582L218.769 118.005C219.418 120.608 218.512 123.368 216.453 125.035L213.956 127.059C213.684 127.279 213.581 127.637 213.696 127.969C213.81 128.297 214.105 128.512 214.447 128.515L218.275 128.562C220.641 128.594 222.808 129.946 223.928 132.091L231.536 146.661C231.639 146.86 231.835 146.992 232.054 147.013H232.089C232.203 147.013 232.27 147.001 232.335 146.978C232.651 146.866 232.829 146.547 232.765 146.215L229.525 130.108C229.057 127.79 229.82 125.349 231.51 123.738L234.598 120.798C234.82 120.587 234.885 120.27 234.762 119.989C234.648 119.73 234.396 119.563 234.116 119.563L230.685 119.801C230.536 119.81 230.387 119.815 230.238 119.815C227.726 119.815 225.483 118.366 224.387 116.034L214.432 94.88C214.313 94.6306 214.073 94.4751 213.804 94.4751ZM213.804 94.8184C213.938 94.8184 214.061 94.8947 214.122 95.0237L224.077 116.18C225.232 118.636 227.615 120.159 230.238 120.159C230.393 120.159 230.551 120.153 230.709 120.141L234.092 119.906H234.116C234.262 119.906 234.391 119.992 234.449 120.126C234.513 120.273 234.481 120.44 234.364 120.549L231.276 123.489C229.498 125.182 228.7 127.743 229.188 130.175L232.428 146.285C232.461 146.447 232.376 146.599 232.221 146.655C232.186 146.667 232.151 146.673 232.113 146.673H232.086C231.981 146.661 231.89 146.602 231.838 146.503L224.232 131.933C223.053 129.673 220.769 128.253 218.278 128.221L214.45 128.171C214.254 128.168 214.084 128.045 214.02 127.857C213.953 127.664 214.011 127.455 214.169 127.326L216.669 125.299C218.828 123.55 219.784 120.655 219.102 117.92L213.453 95.2761C213.406 95.0883 213.503 94.9034 213.681 94.8389C213.722 94.8242 213.763 94.8184 213.804 94.8184Z" fill="#898989"/>
<path d="M280.695 146.816C280.461 146.734 280.33 146.496 280.38 146.249L283.62 130.139C284.096 127.766 283.316 125.263 281.581 123.614L278.493 120.674C278.324 120.513 278.274 120.272 278.368 120.055C278.455 119.859 278.643 119.736 278.859 119.736L282.277 119.973C282.43 119.982 282.585 119.988 282.734 119.988C285.313 119.988 287.614 118.5 288.74 116.106L298.697 94.9526C298.788 94.7619 298.969 94.6445 299.171 94.6445C299.615 94.7736 299.756 95.0406 299.689 95.3164L294.036 117.963C293.372 120.63 294.305 123.459 296.413 125.166L298.911 127.194C299.127 127.367 299.206 127.648 299.115 127.912C299.028 128.174 298.794 128.341 298.525 128.344L294.7 128.391C292.267 128.423 290.044 129.811 288.895 132.011L281.286 146.581C281.21 146.731 281.067 146.827 280.906 146.842L280.868 146.845L280.695 146.816Z" fill="#D1D5E5"/>
<path d="M299.17 94.4751C298.901 94.4751 298.661 94.6306 298.541 94.88L288.587 116.034C287.49 118.366 285.248 119.815 282.736 119.815C282.586 119.815 282.44 119.81 282.288 119.801L278.905 119.566H278.902C278.574 119.566 278.323 119.733 278.212 119.989C278.089 120.27 278.153 120.587 278.376 120.798L281.464 123.738C283.154 125.349 283.917 127.79 283.449 130.108L280.209 146.218C280.145 146.547 280.323 146.866 280.639 146.978C280.709 147.004 280.785 147.016 280.861 147.016C281.139 146.992 281.335 146.86 281.437 146.661L289.046 132.091C290.166 129.946 292.333 128.594 294.699 128.562L298.527 128.515C298.869 128.512 299.164 128.297 299.278 127.969C299.392 127.637 299.29 127.279 299.018 127.059L296.521 125.035C294.462 123.368 293.555 120.608 294.205 118.005L299.854 95.3582C299.942 95.0003 299.752 94.6394 299.407 94.5162C299.331 94.4898 299.252 94.4751 299.17 94.4751ZM299.17 94.8184C299.211 94.8184 299.252 94.8242 299.293 94.8389C299.471 94.9035 299.568 95.0883 299.521 95.2761L293.871 117.92C293.19 120.655 294.146 123.55 296.304 125.299L298.804 127.326C298.962 127.455 299.021 127.664 298.954 127.857C298.889 128.045 298.72 128.168 298.524 128.171L294.696 128.221C292.204 128.253 289.921 129.673 288.742 131.933L281.136 146.503C281.083 146.602 280.993 146.661 280.887 146.673H280.861C280.823 146.673 280.788 146.667 280.753 146.655C280.598 146.599 280.513 146.447 280.545 146.285L283.785 130.175C284.274 127.743 283.475 125.182 281.698 123.489L278.609 120.549C278.493 120.44 278.46 120.273 278.525 120.126C278.583 119.992 278.712 119.906 278.858 119.906H278.881L282.265 120.141C282.423 120.153 282.581 120.159 282.736 120.159C285.359 120.159 287.742 118.636 288.897 116.18L298.851 95.0237C298.913 94.8947 299.035 94.8184 299.17 94.8184Z" fill="#898989"/>
<path d="M237.935 200.603C237.716 200.603 237.505 200.497 237.362 200.318L209.359 161.899C207.906 160.088 205.754 159.05 203.458 159.05C202.815 159.05 202.174 159.135 201.555 159.299L195.931 160.801C195.893 160.804 195.852 160.804 195.817 160.804C195.411 160.804 195.191 160.666 195.054 160.449C194.861 160.135 194.89 159.751 195.133 159.472L198.563 155.555C200.809 152.994 201.183 149.265 199.493 146.281C194.185 136.904 181.254 114.055 175.839 104.391C175.631 104.021 175.798 103.64 176.061 103.469L176.102 103.443L176.429 103.355C176.637 103.355 176.83 103.458 176.962 103.634L205.935 142.45C207.397 144.409 209.599 145.533 211.977 145.533C212.687 145.533 213.401 145.428 214.094 145.225L219.191 143.726C219.235 143.723 219.278 143.723 219.317 143.723C219.653 143.723 219.831 143.826 219.948 143.996C220.127 144.248 220.127 144.574 219.945 144.826L216.699 149.359C214.951 151.797 214.705 154.986 216.056 157.68L238.605 199.482C238.81 199.893 238.628 200.295 238.342 200.48C238.219 200.559 238.076 200.603 237.935 200.603Z" fill="#D1D5E5"/>
<path d="M176.43 103.184C176.269 103.184 176.108 103.234 175.965 103.325C175.64 103.539 175.433 104.014 175.687 104.472C181.106 114.136 194.037 136.989 199.344 146.366C200.996 149.285 200.631 152.935 198.435 155.443L195.005 159.357C194.718 159.689 194.677 160.164 194.911 160.54C195.089 160.827 195.394 161 195.724 161C195.809 161 195.894 160.988 195.975 160.965L201.599 159.463C202.204 159.301 202.83 159.219 203.459 159.219C205.702 159.219 207.807 160.237 209.231 162.009L237.219 200.412C237.406 200.646 237.664 200.773 237.936 200.773C238.108 200.773 238.281 200.72 238.433 200.623C238.784 200.397 239.009 199.907 238.76 199.408L216.203 157.594C214.887 154.965 215.126 151.843 216.837 149.455L220.083 144.925C220.308 144.611 220.308 144.206 220.086 143.895C219.925 143.664 219.662 143.526 219.387 143.526C219.305 143.526 219.223 143.537 219.141 143.561L214.044 145.06C213.369 145.26 212.673 145.359 211.977 145.359C209.652 145.359 207.5 144.262 206.073 142.346L177.096 103.53C176.933 103.31 176.69 103.184 176.43 103.184ZM176.43 103.527C176.579 103.527 176.722 103.598 176.824 103.736L205.798 142.552C207.31 144.576 209.594 145.703 211.977 145.703C212.693 145.703 213.422 145.6 214.141 145.389L219.238 143.892C219.288 143.878 219.337 143.869 219.387 143.869C219.551 143.869 219.709 143.948 219.808 144.092C219.946 144.286 219.943 144.532 219.805 144.723L216.559 149.256C214.776 151.747 214.524 155.006 215.901 157.758L238.453 199.564C238.62 199.895 238.465 200.195 238.249 200.335C238.149 200.4 238.041 200.429 237.936 200.429C237.769 200.429 237.611 200.356 237.494 200.209L209.497 161.795C207.994 159.923 205.757 158.876 203.459 158.876C202.809 158.876 202.154 158.961 201.511 159.131L195.888 160.636C195.832 160.651 195.777 160.657 195.724 160.657C195.513 160.657 195.317 160.548 195.201 160.358C195.046 160.108 195.069 159.803 195.262 159.586L198.692 155.669C200.985 153.049 201.365 149.241 199.64 146.196C194.332 136.819 181.404 113.969 175.985 104.302C175.83 104.023 175.95 103.744 176.152 103.612C176.24 103.554 176.336 103.527 176.43 103.527Z" fill="#898989"/>
<path d="M274.994 200.603C274.854 200.603 274.71 200.559 274.587 200.48C274.301 200.295 274.12 199.893 274.321 199.488L296.876 157.677C298.224 154.986 297.979 151.797 296.23 149.359L292.984 144.826C292.803 144.571 292.803 144.245 292.981 143.993C293.113 143.808 293.317 143.697 293.542 143.697L298.835 145.225C299.528 145.43 300.242 145.533 300.953 145.533C303.33 145.533 305.532 144.409 306.994 142.45L335.968 103.634C336.099 103.458 336.292 103.355 336.5 103.355H336.55L336.868 103.472C337.134 103.645 337.301 104.015 337.093 104.388C331.672 114.055 318.744 136.904 313.436 146.281C311.746 149.265 312.12 152.991 314.366 155.555L317.793 159.472C318.036 159.751 318.068 160.135 317.875 160.449C317.726 160.687 317.475 160.828 317.206 160.828L311.372 159.299C310.755 159.135 310.111 159.05 309.471 159.05C307.175 159.05 305.023 160.088 303.567 161.905L275.573 200.313C275.424 200.497 275.213 200.603 274.994 200.603Z" fill="#D1D5E5"/>
<path d="M336.499 103.184C336.239 103.184 335.996 103.31 335.832 103.53L306.856 142.346C305.429 144.262 303.277 145.359 300.952 145.359C300.256 145.359 299.56 145.26 298.884 145.06L293.787 143.561C293.705 143.537 293.624 143.526 293.542 143.526C293.267 143.526 293.004 143.664 292.84 143.895C292.621 144.206 292.621 144.611 292.846 144.925L296.092 149.455C297.802 151.843 298.042 154.965 296.72 157.603L274.174 199.399C273.92 199.907 274.145 200.397 274.496 200.623C274.648 200.72 274.821 200.773 274.993 200.773C275.265 200.773 275.522 200.646 275.701 200.423L303.709 161.998C305.122 160.237 307.227 159.219 309.47 159.219C310.099 159.219 310.725 159.301 311.33 159.463L316.953 160.965C317.035 160.988 317.12 161 317.205 161C317.535 161 317.839 160.827 318.018 160.54C318.252 160.164 318.211 159.689 317.924 159.357L314.494 155.443C312.298 152.935 311.932 149.285 313.585 146.366C318.892 136.989 331.823 114.136 337.242 104.472C337.496 104.011 337.289 103.539 336.964 103.325C336.821 103.234 336.66 103.184 336.499 103.184ZM336.499 103.527C336.593 103.527 336.689 103.554 336.777 103.612C336.979 103.744 337.099 104.023 336.944 104.302C331.525 113.969 318.597 136.819 313.289 146.196C311.564 149.241 311.944 153.049 314.237 155.669L317.667 159.586C317.857 159.803 317.883 160.108 317.728 160.358C317.611 160.548 317.415 160.657 317.205 160.657C317.152 160.657 317.097 160.651 317.041 160.636L311.418 159.131C310.774 158.961 310.119 158.876 309.47 158.876C307.172 158.876 304.935 159.923 303.432 161.795L275.435 200.209C275.318 200.356 275.16 200.429 274.993 200.429C274.888 200.429 274.78 200.4 274.68 200.335C274.464 200.195 274.309 199.895 274.476 199.564L297.027 157.758C298.405 155.006 298.153 151.747 296.37 149.256L293.124 144.723C292.986 144.532 292.983 144.286 293.121 144.092C293.22 143.948 293.378 143.869 293.542 143.869C293.591 143.869 293.641 143.878 293.691 143.892L298.788 145.389C299.507 145.6 300.235 145.703 300.952 145.703C303.335 145.703 305.619 144.576 307.131 142.552L336.104 103.736C336.207 103.598 336.35 103.527 336.499 103.527Z" fill="#898989"/>
<path d="M256.5 185.853C256.07 185.853 255.728 185.548 255.67 185.113L252.117 146.306C251.614 142.451 248.947 139.247 245.321 138.153L238.285 136.026C237.858 135.897 237.575 135.518 237.563 135.06C237.554 134.603 237.82 134.21 238.247 134.063L246.227 131.276C249.93 129.982 252.477 126.543 252.716 122.515L255.907 68.8768C255.93 68.51 256.223 68.3164 256.5 68.3164C256.778 68.3164 257.071 68.51 257.094 68.8768L260.284 122.515C260.524 126.543 263.071 129.982 266.773 131.276L274.754 134.063C275.181 134.21 275.447 134.603 275.438 135.06C275.426 135.518 275.143 135.897 274.716 136.026L267.677 138.153C264.054 139.247 261.387 142.451 260.884 146.312L257.331 185.104C257.275 185.548 256.93 185.853 256.5 185.853Z" fill="#D1D5E5"/>
<path d="M256.5 68.1465C256.082 68.1465 255.76 68.4487 255.737 68.8682L252.544 122.503C252.31 126.464 249.81 129.844 246.169 131.115L238.189 133.899C237.694 134.072 237.381 134.53 237.393 135.064C237.405 135.595 237.735 136.038 238.235 136.19L245.271 138.314C248.833 139.391 251.453 142.539 251.95 146.333L255.5 185.119C255.567 185.65 255.989 186.023 256.5 186.023C257.012 186.023 257.433 185.65 257.5 185.134L261.053 146.321C261.548 142.539 264.168 139.391 267.729 138.314L274.765 136.19C275.265 136.038 275.596 135.595 275.607 135.064C275.619 134.53 275.306 134.072 274.812 133.899L266.832 131.115C263.191 129.844 260.691 126.464 260.457 122.506L257.264 68.8682C257.24 68.4487 256.918 68.1465 256.5 68.1465ZM256.5 68.4897C256.705 68.4897 256.907 68.6218 256.921 68.8888L260.118 122.524C260.357 126.623 262.948 130.12 266.718 131.437L274.698 134.224C275.052 134.348 275.274 134.673 275.265 135.055C275.259 135.436 275.023 135.753 274.666 135.862L267.63 137.989C263.94 139.101 261.226 142.36 260.711 146.289L257.161 185.09C257.114 185.436 256.842 185.68 256.5 185.68C256.158 185.68 255.886 185.436 255.839 185.09L252.289 146.289C251.775 142.36 249.061 139.101 245.371 137.989L238.335 135.862C237.978 135.753 237.741 135.436 237.735 135.055C237.727 134.673 237.949 134.348 238.303 134.224L246.283 131.437C250.052 130.12 252.643 126.623 252.883 122.524L256.079 68.8888C256.094 68.6218 256.296 68.4897 256.5 68.4897Z" fill="#898989"/>
<path d="M312.596 258.644L312.304 259.389C310.4 264.075 308.429 268.916 302.075 268.916C299.984 268.916 298.621 268.396 297.905 267.325C296.647 265.448 297.709 262.446 299.226 258.72C300.855 254.387 302.89 248.977 309.575 248.977C311.643 248.977 312.991 249.475 313.696 250.502C314.968 252.348 313.816 255.405 312.596 258.644ZM299.633 294.194L299.528 294.458C296.788 301.292 294.808 306.226 287.483 306.226C285.009 306.226 283.424 305.663 282.643 304.501C281.195 302.348 282.696 298.61 284.593 293.878L284.643 293.751C287.509 286.44 289.401 281.611 296.773 281.611C299.235 281.611 300.814 282.171 301.595 283.327C303.054 285.472 301.542 289.321 299.633 294.194ZM320.211 273.821C329.478 271.709 340.344 264.931 342.456 250.887C344.707 235.906 326.788 219.67 307.327 213.811C340.362 224.47 340.195 249.939 330.627 255.854C338.692 248.525 333.683 237.666 323.507 235.07C321.041 234.838 318.336 234.721 315.377 234.721C292.334 234.721 278.218 242.05 272.227 257.127C270.665 261.24 270.656 265.198 272.2 268.261C273.557 270.952 276.087 272.876 279.511 273.827L280.116 273.994L279.467 274.869L279.312 274.904C278.964 274.983 278.584 275.062 278.175 275.15C272.177 276.418 261.015 278.777 254.666 295.154C251.578 303.096 251.38 308.873 254.061 312.81C257.626 318.047 266.355 320.485 281.529 320.485C307.958 320.485 321.629 313.057 328.715 294.843C331.11 288.664 331.469 283.879 329.791 280.616C327.87 276.887 323.705 275.837 320.948 275.141C320.611 275.056 320.296 274.977 320.012 274.898L319.398 274.731L320.059 273.856L320.211 273.821Z" fill="#CE00C9" stroke="#CE00C9" stroke-width="0.12" stroke-miterlimit="10"/>
<path d="M213.429 286.431L225.685 234.001H193.966L170.177 300.044C172.618 307.083 179.063 324.598 206.128 341.245C191.337 331.675 165.761 311.425 183.102 288.658C176.195 301.59 179.242 313.743 186.631 314.347C186.775 311.029 187.661 307.772 188.792 304.46L190.983 298.387L206.122 256.414H207.171L194.55 318.807H209.932L242.318 256.414H243.415L220.91 318.807H241.108L271.654 234.001H240.64L214.459 286.431H213.429Z" fill="#CE00C9" stroke="#CE00C9" stroke-width="0.12" stroke-miterlimit="10"/>
<path d="M329.476 254.573C337.49 247.232 332.473 236.395 322.299 233.808C319.86 233.599 317.142 233.459 314.215 233.459C291.15 233.459 277.004 240.8 271.081 255.832C269.478 259.957 269.478 263.942 271.011 267.018C272.405 269.675 274.913 271.632 278.328 272.541L278.955 272.751L278.258 273.59C278.258 273.59 277.422 273.8 277.004 273.87C271.011 275.128 259.862 277.505 253.52 293.865C250.385 301.835 250.176 307.638 252.893 311.554C256.447 316.797 265.158 319.244 280.349 319.244C306.759 319.244 320.417 311.763 327.525 293.585C329.964 287.433 330.312 282.609 328.64 279.323C326.689 275.617 322.508 274.569 319.79 273.87C319.442 273.8 318.187 273.45 318.187 273.45L318.884 272.611L319.024 272.541C328.292 270.444 339.162 263.662 341.253 249.609C343.552 234.647 325.574 218.427 306.132 212.554C339.162 223.181 339.023 248.7 329.476 254.573ZM296.725 266.039C295.47 264.151 296.516 261.215 298.049 257.44C299.651 253.105 301.742 247.721 308.362 247.721C310.452 247.721 311.776 248.211 312.543 249.26C313.797 251.077 312.613 254.154 311.428 257.37L311.149 258.139C309.198 262.823 307.247 267.647 300.906 267.647C298.815 267.647 297.421 267.158 296.725 266.039ZM281.464 303.234C280 301.066 281.533 297.361 283.415 292.607L283.485 292.467C286.342 285.196 288.223 280.372 295.61 280.372C298.049 280.372 299.651 280.931 300.418 282.05C301.881 284.217 300.348 288.062 298.467 292.956L298.327 293.166C295.61 300.018 293.659 304.982 286.272 304.982C283.833 304.982 282.23 304.422 281.464 303.234Z" fill="url(#paint0_linear_12_120)"/>
<path d="M311.416 257.382L311.124 258.127C309.22 262.812 307.249 267.653 300.895 267.653C298.804 267.653 297.441 267.134 296.725 266.063C295.467 264.186 296.529 261.184 298.046 257.461C299.675 253.125 301.71 247.714 308.395 247.714C310.463 247.714 311.811 248.213 312.516 249.24C313.788 251.086 312.635 254.146 311.416 257.382ZM298.453 292.932L298.348 293.196C295.607 300.029 293.628 304.964 286.302 304.964C283.829 304.964 282.244 304.401 281.463 303.239C280.015 301.086 281.515 297.348 283.413 292.615L283.463 292.489C286.329 285.178 288.221 280.349 295.593 280.349C298.055 280.349 299.634 280.912 300.415 282.065C301.874 284.21 300.362 288.059 298.453 292.932ZM319.031 272.559C328.298 270.447 339.164 263.669 341.276 249.624C343.527 234.644 325.607 218.407 306.147 212.548C339.182 223.207 339.015 248.677 329.447 254.592C337.512 247.263 332.503 236.404 322.326 233.808C319.861 233.576 317.156 233.458 314.197 233.458C291.154 233.458 277.038 240.787 271.047 255.865C269.485 259.981 269.476 263.936 271.02 266.999C272.377 269.69 274.907 271.614 278.331 272.565L278.936 272.732L278.287 273.606L278.132 273.642C277.784 273.721 277.404 273.8 276.995 273.888C270.997 275.156 259.835 277.514 253.486 293.892C250.398 301.834 250.2 307.611 252.881 311.548C256.446 316.785 265.175 319.223 280.349 319.223C306.778 319.223 320.449 311.794 327.535 293.581C329.93 287.402 330.289 282.617 328.611 279.354C326.689 275.625 322.525 274.575 319.768 273.879C319.431 273.794 319.116 273.715 318.832 273.636L318.218 273.469L318.879 272.594L319.031 272.559Z" stroke="#CE00C9" stroke-width="0.12" stroke-miterlimit="10"/>
<path d="M239.429 232.76L213.297 285.196H212.252L224.516 232.76H192.81L168.978 298.759C171.417 305.821 177.898 323.369 204.935 340.009C190.162 330.43 164.588 310.155 181.939 287.363C175.041 300.297 178.037 312.462 185.424 313.092C185.563 309.736 186.469 306.52 187.584 303.164L189.814 297.151L204.935 255.132H205.98L193.368 317.566H208.768L241.171 255.132H242.216L219.708 317.566H239.917L270.508 232.76H239.429Z" fill="url(#paint1_linear_12_120)"/>
<path d="M212.249 285.168L224.505 232.739H192.785L168.996 298.782C171.438 305.82 177.883 323.336 204.947 339.983C190.156 330.412 164.581 310.159 181.922 287.395C175.015 300.328 178.062 312.48 185.451 313.084C185.595 309.766 186.481 306.51 187.612 303.197L189.803 297.124L204.941 255.151H205.991L193.37 317.541H208.752L241.138 255.151H242.235L219.729 317.541H239.927L270.474 232.739H239.459L213.279 285.168H212.249Z" stroke="#CE00C9" stroke-width="0.12" stroke-miterlimit="10"/>
<path d="M222.028 211.945C193.949 212.424 193.028 209.965 198.236 203.135C195.195 204.414 169.307 218.849 158.87 250.908C166.678 229.69 195.616 213.186 222.028 211.945Z" fill="#E8E9EF"/>
<path d="M199.768 347.404C219.761 360.393 244.456 364.679 272.255 359.988C270.45 359.565 256.039 357.664 284.618 350.039C225.522 361.974 190.366 340.844 174.727 319.514C159.474 298.713 154.936 267.994 171.3 242.569C139.914 290.248 175.558 331.675 199.768 347.404Z" fill="#E8E9EF"/>
<path d="M230.41 197.4L225.061 190.226C222.685 190.782 220.721 191.348 219.245 191.863C202.724 197.603 209.39 207.309 234.354 208.447C226.541 205.118 226.017 200.926 230.41 197.4Z" fill="#E8E9EF"/>
<path d="M260.546 211.578C316.857 200.141 338.804 218.887 353.767 255.136C340.713 217.074 307.841 199.62 282.987 196.628L282.373 197.452C296.235 199.739 287.356 205.421 260.546 211.578Z" fill="#E8E9EF"/>
<path d="M339.909 344.147C356.487 325.619 360.894 307.276 360.736 282.44C359.923 307.555 349.211 328.667 335.052 342.114C335.052 342.114 343.459 336.712 339.909 344.147Z" fill="#E8E9EF"/>
<path d="M323.784 329.782C331.542 325.672 331.033 330.014 330.32 332.126C343.14 320.021 356.498 301.502 356.498 277.992C353.831 300.264 341.42 317.055 323.784 329.782Z" fill="#E8E9EF"/>
<path d="M186.721 348.223C169.258 333.509 153.469 312.3 152.502 282.441C152.335 308.94 157.365 328.049 176.828 347.873C177.264 348.319 187.116 348.554 186.721 348.223Z" fill="#E8E9EF"/>
<path d="M311.596 342.258C296.528 335.167 291.09 355.117 311.285 357.377C330.859 351.376 328.917 337.816 320.606 337.816C318.043 337.816 314.936 339.141 311.596 342.258Z" fill="url(#paint2_linear_12_120)"/>
<path d="M311.284 357.388C336.84 349.548 325.719 328.829 311.597 342.275C296.552 335.16 291.098 355.126 311.284 357.388Z" stroke="#CE00C9" stroke-width="0.12" stroke-miterlimit="10"/>
<path d="M157.597 369.222L157.208 372.339C163.111 372.028 168.393 372.183 172.277 372.495L173.209 364.546H173.364C191.073 363.144 195.423 369.846 194.646 378.34C193.637 388.782 183.151 392.445 169.791 392.445L171.112 381.925C171.578 377.483 163.81 376.236 156.742 376.002L151.072 423.071C150.295 429.072 146.412 436.475 141.441 437.878L171.267 437.956C168.315 436.085 165.209 430.474 165.83 425.019L168.548 402.654C190.219 403.355 208.627 397.277 211.113 378.34C212.899 364.001 204.744 354.26 185.015 355.351C176.16 355.818 154.645 359.013 142.528 353.948C142.062 353.87 141.751 353.87 141.441 353.87C137.246 353.87 157.985 361.975 157.597 369.222Z" fill="url(#paint3_linear_12_120)"/>
<path d="M184.979 355.324C176.124 355.784 154.61 358.973 142.536 353.962C134.617 352.859 158.026 361.523 157.596 369.254L157.274 371.886L157.221 372.311C163.152 372.003 168.366 372.194 172.252 372.49L173.223 364.53C173.261 364.527 173.299 364.524 173.337 364.521C191.096 363.131 195.401 369.861 194.62 378.314C193.661 388.759 183.139 392.449 169.816 392.473L171.103 381.923C171.556 377.475 163.816 376.219 156.774 375.987L151.034 423.036C150.3 429.059 146.381 436.497 141.463 437.917L171.278 437.94C168.287 436.086 165.184 430.45 165.842 425.057L168.573 402.66C190.207 403.381 208.659 397.29 211.081 378.302C212.908 363.973 204.744 354.294 184.979 355.324Z" stroke="#CE00C9" stroke-width="0.12" stroke-miterlimit="10"/>
<path d="M299.503 366.417C301.445 367.741 303.387 371.248 302.998 375.69L296.862 426.266C296.008 433.046 293.988 438.579 291.114 435.15C285.91 428.448 286.066 409.434 275.968 407.719C275.968 407.719 275.58 407.641 274.881 407.641C287.464 404.602 294.377 397.432 294.377 386.6C294.377 372.028 283.192 370.001 276.357 371.482C269.522 372.963 258.414 375.223 245.288 376.08C247.385 377.171 251.113 383.327 250.647 387.613L245.831 426.812C240.86 416.603 237.754 400.316 237.831 376.158C237.831 376.158 223.928 375.145 216.238 370.313C218.724 377.95 214.296 395.328 207.384 410.603C172.819 393.38 163.576 416.447 184.237 430.085C178.49 418.785 188.432 414.655 203.267 418.785C197.985 428.526 191.849 436.241 186.49 437.878H215.539C212.588 432.89 212.743 427.669 213.908 422.837C219.578 425.565 225.481 429.306 231.307 434.137C231.074 435.462 230.841 436.709 230.452 437.878H263.463C261.987 437.176 259.502 432.968 259.812 429.072L262.065 410.603C268.978 410.447 269.444 416.213 270.997 424.552C272.085 430.319 274.104 437.41 277.522 437.956H317.212C312.707 436.397 310.377 432.267 310.766 429.072L317.212 376.236C317.834 370.859 319.542 366.183 323.659 361.819C323.659 361.819 310.066 364.001 299.503 366.417ZM265.483 382.782C274.026 378.184 278.842 383.483 278.842 388.549C278.842 393.536 272.395 402.576 262.997 402.81L265.483 382.782ZM216.083 415.434C216.471 414.265 216.782 413.174 217.093 412.161C225.559 381.067 233.171 406.161 232.083 426.89C226.336 422.292 220.976 418.551 216.083 415.434Z" fill="url(#paint4_linear_12_120)"/>
<path d="M217.094 412.128C225.557 381.034 233.16 406.178 232.101 426.924C226.352 422.309 221.007 418.521 216.068 415.458C216.451 414.293 216.807 413.181 217.094 412.128ZM256.019 386.62V386.623C256.022 386.623 256.019 386.62 256.019 386.62ZM265.45 382.774C274.023 378.174 278.808 383.472 278.808 388.551C278.808 393.568 272.389 402.59 263.005 402.813L265.45 382.774ZM184.231 430.116C178.491 418.82 188.454 414.66 203.277 418.791C197.955 428.54 191.86 436.23 186.494 437.917H215.506C212.561 432.874 212.775 427.669 213.874 422.843C219.553 425.571 225.516 429.315 231.326 434.127C231.098 435.456 230.82 436.726 230.49 437.917H263.452C261.987 437.151 259.502 432.971 259.8 429.098L262.052 410.632C268.941 410.473 269.415 416.209 271.006 424.53C272.105 430.28 274.111 437.404 277.541 437.941H317.183C312.673 436.406 310.355 432.261 310.741 429.098L317.186 376.231C317.846 370.827 319.569 366.153 323.68 361.829C323.68 361.829 310.065 363.976 299.511 366.376C301.459 367.726 303.357 371.267 303.023 375.653L296.85 426.278C296.029 433.023 294.017 438.563 291.089 435.136C285.878 428.479 286.051 409.417 275.951 407.686C275.951 407.686 275.567 407.662 274.918 407.633C287.458 404.617 294.379 397.426 294.379 386.62C294.379 372.015 283.191 369.985 276.348 371.464C269.505 372.939 258.411 375.204 245.266 376.12C247.401 377.202 251.147 383.331 250.624 387.647L245.845 426.806C240.848 416.582 237.751 400.345 237.818 376.158C237.818 376.158 223.925 375.16 216.237 370.29C218.746 377.962 214.281 395.319 207.365 410.576C172.812 393.368 163.595 416.42 184.231 430.116Z" stroke="#CE00C9" stroke-width="0.12" stroke-miterlimit="10"/>
<path d="M354.587 367.313C360.388 371.721 366.198 380.211 367.85 389.684C368.827 382.552 369.498 377.494 369.975 374.05C369.975 374.05 366.136 367.272 355.597 367.33C355.281 367.277 354.934 367.295 354.587 367.313Z" fill="url(#paint5_linear_12_120)"/>
<path d="M354.557 367.319C360.362 371.706 366.198 380.19 367.833 389.699C368.801 382.505 369.5 377.515 369.997 374.076C369.997 374.076 365.891 366.85 354.557 367.319Z" stroke="#CE00C9" stroke-width="0.12" stroke-miterlimit="10"/>
<path d="M325.1 383.249C329.683 394.549 337.062 399.77 346.538 409.667C357.412 421.123 339.547 442.086 319.896 401.796L317.799 427.279C318.653 428.37 319.43 429.305 320.207 430.162C323.158 433.202 326.032 434.604 328.285 435.15C347.47 444.112 368.364 436.163 370.461 422.603C370.538 422.214 370.616 421.824 370.616 421.434C372.17 411.771 363.936 401.017 349.489 388.626C332.712 374.287 341.722 363.923 348.013 364.312C350.499 362.832 355.548 360.26 362.15 358.779C357.179 355.662 351.897 354.337 346.926 354.337C331.469 354.337 318.731 367.507 325.1 383.249Z" fill="url(#paint6_linear_12_120)"/>
<path d="M349.524 388.651C332.73 374.272 341.687 363.924 348.003 364.282C350.468 362.841 355.527 360.257 362.177 358.807C341.766 346.036 316.681 362.366 325.138 383.288C329.677 394.519 337.093 399.803 346.526 409.682C357.419 421.086 339.558 442.066 319.907 401.833L317.822 427.3C318.62 428.391 319.418 429.339 320.214 430.163H320.211L320.217 430.169C323.167 433.238 326.016 434.591 328.308 435.131C347.445 444.108 368.374 436.181 370.476 422.629C370.543 422.195 370.584 421.805 370.605 421.444C372.169 411.797 363.937 400.991 349.524 388.651Z" stroke="#CE00C9" stroke-width="0.12" stroke-miterlimit="10"/>
<path d="M395.517 345.786C398.23 346.282 400.687 347.881 404.535 347.881C406.544 347.881 408.93 347.446 411.931 346.191C422.783 338.011 423.215 319.298 443.726 319.298C444.115 319.298 444.51 319.304 444.916 319.319C441.454 318.397 436.831 317.711 431.889 317.711C424.192 317.711 415.718 319.372 409.632 324.383C409.465 327.017 402.167 334.358 397.146 335.849C400.821 331.897 402.178 330.013 403.655 326.994C400.883 331.289 391.858 338.513 380.761 339.745C379.541 339.88 378.424 339.944 377.41 339.944C373.567 339.944 371.228 339.041 370.503 337.797C367.856 333.261 371.792 328.288 375.439 328.288C377.831 328.288 380.097 330.43 380.293 336.242C382.899 332.812 384.422 322.778 383.703 318.94C381.814 308.883 372.371 304.881 366.283 304.881C365.844 304.881 365.423 304.901 365.023 304.942C374.953 306.512 378.451 317.837 370.555 328.74C365.178 336.165 361.154 345.66 364.616 352.408C371.207 347.655 379.439 345.551 386.723 345.24C388.317 345.173 393.008 344.122 410.313 331.982C403.553 341.071 394.213 345.548 395.517 345.786Z" fill="#D1D5E5"/>
<path d="M434.522 288.551C436.718 291.165 441.453 295.27 427.156 299.046C407.057 304.353 397.109 327.552 392.696 327.552C392.644 327.552 392.594 327.549 392.547 327.543C404.04 314.722 399.758 294.988 392.971 289.047C388.026 284.716 382.73 281.507 381.593 278.291C381.768 276.466 382.613 275.841 383.693 275.841C385.792 275.841 388.784 278.218 389.486 278.758C382.631 269.586 373.768 264.513 380.85 248.908C371.636 257.328 366.059 270.469 367.1 285.08C367.706 293.533 371.955 300.257 379.736 305.063C385.813 308.816 389.304 312.659 390.117 316.488C390.658 319.043 390.032 321.59 388.199 324.277C387.664 325.064 387.675 325.384 387.708 325.419C387.713 325.425 387.725 325.425 387.74 325.425C387.874 325.425 388.38 325.231 389.401 324.143C392.237 321.118 393.609 317.083 393.258 312.782C392.875 308.05 391.448 301.114 387.281 296.525C382.312 291.048 376.092 285.682 377.259 281.923C377.505 287.316 396.241 293.339 396.048 312.589C395.977 319.501 392.445 325.753 385.737 331.178C385.394 331.457 385.412 331.841 385.529 332.091C385.628 332.302 385.856 332.519 386.187 332.519C386.242 332.519 386.301 332.513 386.362 332.498C396.469 330.313 403.256 323.339 407.748 318.726C408.3 318.157 408.821 317.626 409.306 317.139C415.292 311.175 420.293 308.156 424.167 308.156C424.22 308.156 424.273 308.156 424.325 308.158L425.352 308.179L424.366 308.469C418.798 310.098 412.35 317.591 410.4 320.475C418.345 314.158 423.261 313.918 426.562 313.806C427.17 310.403 430.586 308.27 433.338 306.554C434.268 305.97 435.148 305.421 435.774 304.905C437.28 303.661 439.721 299.351 439.23 295.188C438.894 292.359 437.312 290.132 434.522 288.551Z" fill="#D1D5E5"/>
<path d="M417.688 256.777C409.781 262.871 401.227 276.179 413.579 289.437C409.912 274.738 415.428 266.491 428.019 260.392L428.955 259.937L428.198 260.65C422.858 265.658 417.053 271.555 416.612 279.057C416.241 285.4 417.337 290.523 414.123 293.524C411.48 295.992 406.324 302.411 404.628 307.813C407.415 302.749 411.921 298.541 416.673 294.105C423.835 287.419 431.242 280.504 434.736 269.405C437.594 260.321 438.041 249.093 435.93 239.364C433.608 228.646 425.291 218.991 421.183 217.207C424.753 219.783 425.949 223.72 424.771 227.391C423.463 231.463 426.689 235.527 427.914 239.713C430.233 247.635 422.92 252.746 417.688 256.777Z" fill="#D1D5E5"/>
<path d="M382.77 233.631C379.094 217.43 364.505 199.633 354.691 194.959C370.222 199.771 384.177 221.913 387.665 230.926C386.563 225.44 377.939 205.706 381.516 205.703C382.451 205.703 384.22 207.053 387.174 210.356C378.156 197.001 370.555 188.745 357.037 186.521C334.865 182.874 341.009 178.758 338.579 165.91C325.261 221.027 356.244 189.801 382.77 233.631Z" fill="#D1D5E5"/>
<path d="M326.728 146.365C326.494 146.321 326.283 146.303 326.102 146.303C325.64 146.303 325.362 146.418 325.336 146.514C325.301 146.649 325.669 147.169 327.78 147.929L328.62 148.228C332.453 149.595 337.702 151.464 339.042 154.741C339.533 155.938 340.15 156.458 340.805 157.006C342.007 158.018 343.054 159.095 343.881 164.156C347.551 186.618 359.938 172.961 372.51 186.392C360.558 172.899 359.023 174.601 357.432 168.953C357.394 168.818 357.479 168.771 357.637 168.771C358.014 168.771 358.821 169.032 359.509 169.032C360.193 169.032 360.757 168.774 360.655 167.741C360.515 166.298 358.333 164.47 351.736 162.287C356.421 162.947 361.497 162.669 368.98 170.127C373.118 174.255 374.381 188.217 387.663 198.518C385.374 195.203 379.777 189.893 380.268 184.661C381.473 171.881 382.452 164.411 369.627 160.011C361.246 157.135 356.967 156.232 353.306 153.94C349.335 151.455 346.197 149.492 340.027 148.677C330.754 147.453 328.839 146.919 327.698 146.602C327.362 146.509 327.096 146.432 326.728 146.365Z" fill="#D1D5E5"/>
<path d="M448.718 321.638C447.092 321.11 445.229 320.758 443.194 320.758C437.059 320.758 429.377 323.95 422.034 335.041C422.034 335.041 427.406 328.04 434.678 325.652C435.518 325.376 436.287 325.253 436.98 325.253C442.287 325.253 443.194 332.515 438.231 334.375C438.933 334.803 439.6 334.988 440.229 334.988C443.068 334.988 445.118 331.215 445.984 329.058C446.337 328.178 446.647 327.847 446.852 327.847C447.256 327.847 447.229 329.158 446.247 330.062C448.288 329.393 451.958 324.889 448.718 321.638Z" fill="#D1D5E5"/>
<path d="M391.017 212.291C389.174 218.012 389.537 224.458 391.581 231.021C392.833 235.032 391.049 243.009 388.996 244.145C388.788 244.259 388.56 244.315 388.306 244.315C387.007 244.315 385.092 242.801 382.489 239.72C373.053 228.554 367.204 226.697 364.362 226.694C363.859 226.694 363.453 226.752 363.134 226.829C361.47 227.219 360.347 228.419 359.885 230.294C358.861 234.454 357.671 243.581 372.784 252.266C367.392 247.721 365.09 243.405 367 242.422C367.397 242.214 367.459 241.651 367.813 241.343C365.225 238.652 366.067 236.921 368.915 236.921C372.138 236.921 377.922 239.139 384.203 244.693H384.2C385.61 245.858 386.829 247.225 387.721 248.774C394.552 260.636 395.081 267.434 393.771 269.109C393.523 269.426 393.204 269.588 392.841 269.588C392.719 269.588 392.59 269.57 392.461 269.532C390.753 269.03 382.223 262.511 384.987 250.5C380.097 264.515 389.818 273.566 395.777 279.091C402.149 284.997 406.252 287.813 402.076 304.88C404.629 298.135 408.305 290.375 408.457 289.462C397.049 274.857 403.182 262.936 411.065 251.004C419.306 238.532 419.742 230.182 413.01 213.778C408.577 202.976 400.953 193.47 397.658 192.267C403.74 195.923 410.636 205.848 402.298 219.676C398.041 226.732 399.079 229.648 401.061 231.59C406.787 237.194 407.41 241.95 402.193 252.319C407.729 243.986 410.261 240.926 410.995 240.926C412.77 240.926 403.98 258.888 401.772 263.306C400.509 265.835 399.237 267.191 398.155 267.191C398.049 267.191 397.944 267.179 397.842 267.15C396.312 266.756 395.596 263.488 395.821 257.952C395.991 253.794 394.906 250.796 395.309 247.844C395.935 243.267 404.009 240.339 400.079 236.66C389.683 226.928 395.456 208.914 399.36 208.914C400.421 208.914 401.342 210.24 401.766 213.426C404.088 209.507 401.187 203.592 392.052 194.209C388.139 190.193 387.739 188.723 387.513 188.723C387.508 188.723 387.499 188.723 387.493 188.726C387.665 198.519 393.938 203.21 391.017 212.291Z" fill="#D1D5E5"/>
<path d="M130.881 359.112C128.615 359.112 126.284 359.277 123.842 359.643C122.284 359.878 120.886 359.981 119.649 359.981C110.516 359.981 110.215 354.342 117.722 354.342C119.389 354.342 121.441 354.62 123.869 355.301C119.582 352.385 115.482 352.156 110.803 352.156C109.94 352.156 109.06 352.165 108.154 352.165C99.9599 352.165 89.7717 351.534 74.0509 338.871C77.408 342.269 92.4884 358.053 95.0237 358.464C97.4889 358.866 100.039 359.28 103.507 362.612C109.078 367.958 109.405 366.931 114.967 366.931C116.66 366.931 127.79 362.912 147.95 364.52C152.602 364.892 141.721 359.112 130.881 359.112Z" fill="#D1D5E5"/>
<path d="M143.91 314.74C140.282 321.534 139.894 336.004 142.255 341.741C143.443 344.621 144.495 348.613 147.263 350.038C151.879 352.408 159.555 351.043 168.096 350.381C147.263 350.038 139.092 332.115 143.91 314.74Z" fill="#D1D5E5"/>
<path d="M161.882 210.846C164.104 210.846 166.119 211.644 167.654 213.569C166.125 210.752 163.683 209.705 160.89 209.705C152.723 209.702 141.538 218.683 141.31 218.683C141.31 218.683 141.307 218.68 141.31 218.671C148.427 206.991 157.279 201.105 162.569 201.105C165.835 201.105 167.742 203.353 167.04 207.862C181.527 204.688 159.642 179.118 194.332 166.415H194.329C181.948 166.415 160.741 181.354 157.934 189.948L157.878 190.118L157.718 190.042C156.557 189.493 156.729 188.495 157.019 186.846C157.08 186.486 157.15 186.089 157.215 185.652C157.32 184.919 157.206 184.438 156.902 184.335C156.852 184.317 156.799 184.309 156.741 184.309C156.223 184.309 155.355 184.963 154.673 186.175C153.951 187.46 153.574 188.88 152.951 191.233C152.553 192.747 152.053 194.63 151.302 197.077C150.062 201.099 147.538 201.589 146.512 201.613H146.401C144.862 201.613 143.403 200.744 142.985 199.577C142.257 197.547 141.769 191.432 144.696 187.9C141.081 188.331 139.888 190.35 138.628 192.48C137.713 194.026 136.768 195.622 134.856 196.64C132.914 197.67 132.282 200.023 132.095 201.815C131.867 203.972 132.162 206.518 132.885 208.625C134.306 212.765 133.315 218.043 130.232 222.743C127.182 227.402 114.588 241.576 143.216 252.159C123.138 241.732 129.653 237.9 133.317 236.33C137.631 234.485 146.816 234.276 148.489 229.427C147.585 229.591 146.795 229.667 146.114 229.667C135.414 229.667 151.088 210.846 161.882 210.846Z" fill="#D1D5E5"/>
<path d="M138.146 171C141.003 168.923 143.211 168.063 144.656 168.063C148.925 168.063 146.539 175.562 134.535 181.307C134.479 181.333 134.456 181.348 134.462 181.348C134.576 181.348 145.223 176.833 147.431 176.833C147.642 176.833 147.776 176.874 147.817 176.965C148.873 179.356 135.901 182.941 140.132 184.164C140.404 184.244 140.699 184.276 141.018 184.276C142.474 184.276 144.358 183.604 145.948 183.604C148.013 183.604 149.58 184.74 149.051 189.977C149.762 185.843 150.861 183.402 154.876 181.486C159.517 179.268 160.309 177.56 160.514 169.301C160.733 160.602 180.136 149.43 183.709 149.066C186.233 148.808 187.335 148.461 187.493 148.277C187.406 148.183 183.069 147.432 182.411 147.432H182.367C170.591 148.373 162.427 152.724 153.815 156.368C147.475 159.05 140.22 160.526 134.541 164.193C113.72 177.639 132.21 187.538 115.551 193.902C139.304 187.635 126.467 179.491 138.146 171Z" fill="#D1D5E5"/>
<path d="M122.642 204.548C118.472 211.61 118.235 217.522 119.212 220.699C120.157 223.762 120.06 224.135 118.452 230.369L118.279 231.041C116.425 238.247 117.557 246.597 119.428 249.543C116.007 247.207 107.047 222.313 122.642 204.548ZM80.2112 269.417C80.103 269.939 79.986 270.503 79.8632 271.113C78.5385 277.632 79.7228 282.332 90.2326 292.944C95.0811 297.838 100.216 301.171 105.179 304.398C110.352 307.758 115.264 310.95 119.259 315.565C115.139 307.981 113.802 299.789 115.282 291.193C116.683 283.063 120.323 276.288 123.128 272.034C128.818 263.406 126.447 255.889 121.133 247.257C116.221 239.277 122.578 226.192 125.295 220.605L125.426 220.332C128.467 214.069 128.143 208.755 124.432 204.09L124.406 204.052L124.4 204.008C124.23 202.521 132.789 195.679 133.421 185.923C126.552 202.993 105.942 193.625 105.863 204.454C107.202 203.817 108.24 203.545 108.98 203.545C111.685 203.545 110.375 207.191 105.097 209.888C103.018 210.95 100.605 212.836 100.041 214.632C98.403 219.848 111.82 218.073 109.036 223.789C108.076 225.76 105.705 227.078 103.512 227.078C100.988 227.078 98.6984 225.332 99.0639 220.82C88.8816 231.25 105.097 238.279 111.378 246.204C113.659 249.079 115.878 252.38 115.068 253.19C114.723 253.533 114.557 254.357 114.027 254.357C113.647 254.357 113.08 253.932 112.121 252.591C109.907 249.499 107.304 248.049 105.193 248.049C100.93 248.049 98.6691 253.958 105.655 264.16C106.465 263.617 107.459 263.323 108.509 263.323C113.016 263.323 118.513 268.731 114.665 282.925C113.267 288.08 110.369 298.809 114.393 307.699L114.691 308.353L114.147 307.884C100.684 296.236 95.1951 285.073 96.3531 271.685C96.4116 271.013 96.6368 270.218 97.0842 270.198H97.09C97.4205 270.198 97.669 270.605 97.8211 271.447C99.3797 280.059 101.947 286.704 105.673 291.759C106.673 293.117 107.088 293.27 107.223 293.27C107.246 293.27 107.261 293.267 107.266 293.261C107.319 293.241 107.565 293.068 107.386 291.674C107.114 289.556 107.957 285.345 109.302 282.092C112.036 275.476 105.304 268.229 101.049 264.494C95.6221 259.738 98.1954 250.499 99.5523 246.747C101.175 242.269 97.9118 238.303 94.7565 234.465C93.9669 233.506 93.1511 232.514 92.4258 231.534C88.9898 226.872 85.8667 224.217 94.04 215.054C94.0576 215.031 94.0634 215.022 94.0517 215.022C93.888 215.022 90.6596 217.231 89.0951 218.566C86.1036 221.122 81.4218 229.624 83.7993 235.331C85.5801 239.605 88.5512 238.983 88.0921 242.883C87.9342 244.226 85.3023 248.129 85.1795 249.974C84.9339 253.738 86.7849 255.164 88.7442 256.672C90.4432 257.981 92.2007 259.333 92.692 262.27C92.9961 264.086 92.689 265.459 91.8234 266.137C91.4462 266.433 90.9842 266.583 90.4812 266.583C90.0923 266.583 89.6741 266.492 89.2559 266.31C88.1126 265.814 86.706 264.444 86.5071 262.223L86.437 261.416C86.0919 257.382 86.0393 256.76 82.3693 255.273C78.869 253.856 75.2487 240.462 77.9244 233.961C72.1695 246.535 77.1466 255.933 79.448 259.489C81.5856 262.792 81.2932 264.195 80.2112 269.417Z" fill="#D1D5E5"/>
<path d="M74.2076 325.949C83.1588 325.949 101.971 332.374 113.159 343.115C114.697 344.588 112.673 345.75 109.454 345.75C104.833 345.75 97.7567 343.359 95.2009 336.068C95.7974 351.665 109.071 346.568 119.045 348.892C121.113 349.373 125.73 352.055 128.014 353.114C137.734 357.626 147.007 356.197 154.742 363.867C156.368 360.528 146.706 355.96 141.983 353.704C134.184 349.978 128.026 347.032 123.329 340.545C118.063 333.266 108.106 323.816 100.032 320.638C98.5813 320.069 96.9671 319.192 97.1835 318.602C97.2566 318.4 97.5169 318.315 97.8883 318.315C98.6924 318.315 100.032 318.702 101.193 319.101C105.623 320.621 115.019 325.45 122.116 333.914C128.461 341.484 138.524 350.236 146.022 352.958C139.658 348.205 135.743 341.384 135.225 334.096C134.825 328.437 128.447 308.985 137.962 308.985C140.147 308.985 143.17 310.012 147.3 312.467C144.899 309.524 142.302 306.277 135.714 302.31C131.076 299.517 123.487 292.006 139.685 274.854C131.397 285.202 130.699 292.232 137.354 296.02C135.266 286.361 154.473 283.856 150.727 268.496C149.215 262.303 141.217 255.572 133.5 251.494C129.093 249.168 127.461 248.725 126.856 248.725C126.634 248.725 126.549 248.783 126.52 248.833C126.14 249.429 128.573 251.723 130.28 253.695C133.632 257.567 133.131 264.685 130.467 267.467C127.365 270.703 126.83 271.554 126.812 272.959C126.809 273.161 126.809 273.361 126.795 273.563C126.739 274.487 126.757 275.479 127.321 275.822C127.464 275.91 127.643 275.954 127.856 275.954C128.406 275.954 129.181 275.655 130.172 275.06C131.438 274.294 133.009 273.769 134.155 273.769C134.778 273.769 135.275 273.924 135.529 274.279C135.962 274.884 135.778 276.201 132.438 279.047C131.78 279.607 131.093 280.173 130.365 280.775C123.841 286.156 115.723 292.854 119.256 302.914C120.367 306.077 121.505 308.184 122.598 309.844C122.671 309.862 122.756 309.894 122.859 309.947C123.125 310.085 123.376 310.149 123.604 310.149C125.818 310.149 126.321 304.246 125.166 300.828C132.324 311.833 117.364 325.773 133.588 340.199L134.047 340.824L133.38 340.431C124.008 334.903 122.347 330.884 120.879 325.382C119.554 320.412 117.656 317.123 115.668 316.355C115.355 316.231 115.036 316.17 114.712 316.17C114.135 316.17 113.548 316.363 112.954 316.748C111.96 317.393 111.007 317.719 110.138 317.719C109.656 317.719 109.199 317.616 108.778 317.417C107.427 316.771 106.483 315.114 106.246 312.978C105.886 309.721 101.356 305.053 98.7831 304.584C98.1719 304.472 97.6982 304.417 97.3444 304.417C96.9554 304.417 96.7098 304.484 96.587 304.619C96.3647 304.86 96.4495 305.391 96.6689 306.227C96.9847 307.427 95.8442 310.246 94.0721 311.129C93.7358 311.297 93.3323 311.417 92.8761 311.417C91.9491 311.417 90.7999 310.915 89.5249 309.272C87.627 306.834 87.6036 304.786 87.5832 302.809C87.5569 300.391 87.5364 298.305 84.077 295.905C78.2548 291.865 77.8366 286.534 79.056 283.345C75.7516 287.15 74.9621 291.035 76.7868 294.626C77.0968 295.239 77.4009 295.756 77.6728 296.213C78.9829 298.434 79.7052 299.655 78.0939 306.241C78.0033 306.611 77.9068 306.995 77.8074 307.392C76.8043 311.414 72.6022 315.163 73.2572 319.688C77.2108 318.828 80.2433 318.496 82.4979 318.496C88.8815 318.496 89.0248 321.143 86.1415 321.938C86.1269 321.941 86.1035 321.944 86.0684 321.944C85.1385 321.944 77.012 320.518 70.4909 320.518C65.9524 320.518 62.1947 321.207 62.1684 323.546C62.1479 325.506 61.7766 329.091 73.4297 334.155C66.8355 328.507 68.5608 325.949 74.2076 325.949Z" fill="#D1D5E5"/>
<path d="M130.965 383.619C141.136 376.572 152.386 377.933 164.162 376.724C161.67 376.243 158.804 376.035 156.088 375.967C139.218 376.064 117.836 378.2 117.169 385.875C115.914 376.859 138.949 372.332 157.369 372.303C160.161 372.162 162.796 372.13 165.206 372.168C165.185 372.088 165.135 372.009 165.03 371.951C149.055 362.961 104.337 384.66 69.1758 348.379C83.5105 372.153 89.7597 390.147 109.955 386.999C103.822 401.654 122.234 412.697 133.422 407.627C118.83 410.552 123.757 388.615 130.965 383.619Z" fill="#D1D5E5"/>
<path d="M378.965 369.154C383.24 371.718 399.698 388.389 377.377 398.69C402.999 394.8 396.955 371.451 404.327 369.154C402.265 373.291 402.613 374.802 404.213 374.802C406.257 374.802 410.348 372.331 414.056 369.726C423.095 363.377 434.541 339.307 434.383 339.307C434.383 339.307 434.374 339.316 434.362 339.328C425.174 351.292 412.682 354.772 403.54 354.772C400.695 354.772 398.174 354.434 396.177 353.912C393.572 353.229 387.606 351.615 380.272 351.615C371.654 351.615 357.477 356.148 348.003 364.281C357.53 358.973 374.087 357.389 378.635 357.389C384.518 357.389 385.378 358.856 390.44 359.625C392.618 359.956 393.507 360.728 393.417 361.347C393.329 361.981 392.317 362.362 390.802 362.362C390.644 362.362 390.481 362.359 390.311 362.35C388.703 362.271 382.913 361.937 381.307 361.831C364.455 360.719 350.652 363.659 342.649 369.227C342.649 369.227 364.034 360.194 378.965 369.154Z" fill="#D1D5E5"/>
<defs>
<linearGradient id="paint0_linear_12_120" x1="296.239" y1="326.865" x2="296.239" y2="256.95" gradientUnits="userSpaceOnUse">
<stop stop-color="#ED89E5"/>
<stop offset="1" stop-color="#EDB0E5"/>
</linearGradient>
<linearGradient id="paint1_linear_12_120" x1="219.735" y1="326.865" x2="219.735" y2="256.95" gradientUnits="userSpaceOnUse">
<stop stop-color="#ED89E5"/>
<stop offset="1" stop-color="#EDB0E5"/>
</linearGradient>
<linearGradient id="paint2_linear_12_120" x1="312.363" y1="346.467" x2="312.363" y2="424.396" gradientUnits="userSpaceOnUse">
<stop stop-color="#ED89E5"/>
<stop offset="1" stop-color="#EDB0E5"/>
</linearGradient>
<linearGradient id="paint3_linear_12_120" x1="176.114" y1="346.467" x2="176.114" y2="424.396" gradientUnits="userSpaceOnUse">
<stop stop-color="#ED89E5"/>
<stop offset="1" stop-color="#EDB0E5"/>
</linearGradient>
<linearGradient id="paint4_linear_12_120" x1="248.509" y1="346.467" x2="248.509" y2="424.396" gradientUnits="userSpaceOnUse">
<stop stop-color="#ED89E5"/>
<stop offset="1" stop-color="#EDB0E5"/>
</linearGradient>
<linearGradient id="paint5_linear_12_120" x1="362.252" y1="346.48" x2="362.188" y2="424.376" gradientUnits="userSpaceOnUse">
<stop stop-color="#ED89E5"/>
<stop offset="1" stop-color="#EDB0E5"/>
</linearGradient>
<linearGradient id="paint6_linear_12_120" x1="344.307" y1="346.467" x2="344.307" y2="424.396" gradientUnits="userSpaceOnUse">
<stop stop-color="#ED89E5"/>
<stop offset="1" stop-color="#EDB0E5"/>
</linearGradient>
</defs>
</svg>
