<?xml version="1.0" encoding="UTF-8"?>
<svg width="323.5" height="307.36" version="1.1" viewBox="0 0 323.5 307.36" xmlns="http://www.w3.org/2000/svg" xmlns:cc="http://creativecommons.org/ns#" xmlns:dc="http://purl.org/dc/elements/1.1/" xmlns:rdf="http://www.w3.org/1999/02/22-rdf-syntax-ns#">
 <metadata>
  <rdf:RDF>
   <cc:Work rdf:about="">
    <dc:format>image/svg+xml</dc:format>
    <dc:type rdf:resource="http://purl.org/dc/dcmitype/StillImage"/>
    <dc:title/>
   </cc:Work>
  </rdf:RDF>
 </metadata>
 <defs>
  <style>.a{fill:#1a1f29;}.b{fill:#02ff5b;}</style>
 </defs>
 <path class="a" d="m132.6 242.81h-42.854l11.174-57.896c-1.63-0.1816-3.481 0.521-5.8291 2.0236-11.192 7.162-22.543 14.076-33.851 21.058l-13.395 69.402h84.027c0.1885-11.063 0.45-23.366 0.77-33.638v-8e-3c-6e-4 -0.3136-0.0265-0.6276-0.0412-0.9415z"/>
 <path class="a" d="m318.49 84.962c0-24.834-10.228-46.4-28.799-60.725l-0.2731-0.2076c-17.072-12.805-39.192-19.03-67.622-19.03h-121.38l-7.7847 40.335c8.2378 13.492 16.638 26.888 24.922 40.354a9.3137 9.3137 0 0 0 2.07 2.3125l9.3439-48.414h92.829c20.619 0 35.924 3.9414 46.784 12.049l0.0683 0.0519c12.605 9.7725 15.254 23.483 15.254 33.274a37.578 37.578 0 0 1-10.865 27.232l-19.912 20.322 16.101 23.457a38.529 38.529 0 0 1 6.62 22.248c0 21.528-10.118 40.992-27.069 52.084l-0.06 0.0385c-13.713 8.7354-27.978 12.463-47.68 12.463h-44.849c-0.2831 8.6379-0.6615 16.92-1.1184 21.559a0.33 0.33 0 0 0-9e-3 0.0888c-0.5152 4.3878-7.1144 4.4144-7.7272 0.0356 0-0.0356-9e-3 -0.08-9e-3 -0.1154-0.32-2.5492-0.3019-10.614-0.2486-18.075-0.1245-1.1192-0.5507-2.407-1.8209-2.7355-2.3626-0.6218-3.2952 0.5682-3.3841 4.2987a2.2688 2.2688 0 0 1-0.0355 0.3909c-0.2192 9.0438-0.4225 19.551-0.684 29.141h59.886c26.454 0 46.919-5.5324 66.355-17.937l0.21-0.1352c26.82-17.492 42.832-47.81 42.832-81.1a73.278 73.278 0 0 0-12.691-41.822 72.202 72.202 0 0 0 20.747-51.438z"/>
 <path class="b" d="m219.2 104.16c-10.117-16.554-21.949-34.053-26.775-44.542-3.4844-7.573-6.5633-5.0935-14.264-0.3435-15.894 9.8043-31.74 19.685-47.63 29.496a9.5674 9.5674 0 0 1-12.97-3.0775c-8.2832-13.466-29.155-47.293-31.245-50.779-3.4553-5.7615-6.3359-5.8171-13.347-0.2954a184.61 184.61 0 0 1-37.03 22.872c-7.2638 3.339-8.1454 5.969-4.935 11.03 6.0087 9.4733 10.623 18.415 16.521 27.959 5.0377 8.1519 11.356 16.907 16.485 25.001 2.88 4.5452 2.3938 7.1453-2.2959 9.98-8.12 4.9079-19.646 10.797-27.704 15.808-9.4107 5.8523-15.351 10.828-24.85 16.533-5.7934 3.48-5.2883 6.4585-0.0017 13.192a183.01 183.01 0 0 1 22.592 36.51c3.9063 8.5077 6.6511 8.8384 12.138 5.3411 5.7531-3.6665 11.55-7.2637 17.356-10.848 11.308-6.9813 22.659-13.896 33.851-21.058 2.3481-1.5026 4.2-2.2052 5.8291-2.0236 2.9848 0.3327 5.2128 3.6781 8.2994 10.83a149.99 149.99 0 0 0 15.659 27.598v5e-4l0.0338 0.0457c0.0273 0.0383 0.0554 0.0759 0.0827 0.114 0.9219 1.2784 7.1838 10.297 7.6055 19.31 0.0147 0.3139 0.0406 0.6279 0.0406 0.9415v8e-3c-0.3192 10.272-0.5811 22.575-0.77 33.638-0.0419 2.4536-0.0814 4.8668-0.1158 7.16-0.08 5.1516-0.1332 9.8058-0.1687 13.545a5.172 5.172 0 0 0 0.0266 0.5242c0.48 4.5651 7.1412 5.1071 8.4912 0.71a5.0433 5.0433 0 0 0 0.231-1.19c0.24-3.6861 0.4352-8.3759 0.604-13.59 0.0761-2.2928 0.1459-4.7042 0.213-7.16 0.2615-9.5892 0.4648-20.097 0.684-29.141a2.2688 2.2688 0 0 0 0.0355-0.3909c0.0889-3.73 1.0215-4.9205 3.3841-4.2987 1.27 0.3285 1.6964 1.6163 1.8209 2.7355-0.0533 7.4611-0.0712 15.526 0.2486 18.075 0 0.0355 9e-3 0.08 9e-3 0.1154 0.6128 4.3788 7.212 4.3522 7.7272-0.0356a0.33 0.33 0 0 1 9e-3 -0.0888c0.4569-4.6389 0.8353-12.921 1.1184-21.559 3e-3 -0.0946 7e-3 -0.1875 0.01-0.2821q0.0485-1.4932 0.0927-2.9939v-1e-3q0.012-0.4031 0.0241-0.8059c0.2427-1.19 1.4849-3.5811 7.0547-6.386h1e-3a49.693 49.693 0 0 0 7.4026-2.8583c6.4855-3.54 12.52-7.9022 18.996-11.463 5.7166-3.1435 6.5629-6.2454 2.7968-11.992-10.638-16.232-20.705-32.841-30.877-49.375-4.8277-7.8466-4.6921-7.9029 2.9218-12.629 8.1783-5.0762 17.02-9.384 25.194-14.468 9.105-5.6633 17.543-12.101 26.675-17.721 3.1601-1.9456 5.1158-3.7489 2.7144-7.6778z"/>
</svg>
