<?xml version="1.0" encoding="UTF-8"?>
<svg width="247.8" height="228" fill="none" version="1.1" viewBox="0 0 247.8 228" xmlns="http://www.w3.org/2000/svg" xmlns:cc="http://creativecommons.org/ns#" xmlns:dc="http://purl.org/dc/elements/1.1/" xmlns:rdf="http://www.w3.org/1999/02/22-rdf-syntax-ns#">
 <metadata>
  <rdf:RDF>
   <cc:Work rdf:about="">
    <dc:format>image/svg+xml</dc:format>
    <dc:type rdf:resource="http://purl.org/dc/dcmitype/StillImage"/>
    <dc:title/>
   </cc:Work>
  </rdf:RDF>
 </metadata>
 <g fill="#0083c1">
  <path d="m67.107 207.02c0-4.97-4.3172-7.423-9.8771-7.423h-19.274l4.024 2.91v18.831h6.3046v-6.865h6.3993l5.745 6.865h7.362l-6.3991-7.392c3.4172-0.994 5.715-3.292 5.715-6.926zm-10.343 2.857h-8.5101v-5.467h8.5101c2.2682 0 3.914 0.622 3.914 2.734s-1.6459 2.733-3.914 2.733z"/>
  <path d="m80.962 199.6-11.243 21.741h6.6471l2.0491-4.162h11.927l2.0491 4.162h6.7398l-11.243-21.741zm-0.3724 13.076 3.7886-7.703 3.7587 7.703z"/>
  <path d="m123.43 199.6h-6.771l-7.144 15.654-7.175-15.654h-10.857l5.8193 2.91 8.8277 18.831 3.363 6.661 3.283-6.661 5.761-11.757-3.253-0.663 4.007-0.874 0.697-1.423-5.267-0.822 6.523-1.742z"/>
  <path d="m132.28 212.64h13.696v-4.628h-13.696v-3.573h16.617v-4.844h-22.861v8.422h-2.519l-2.147 4.609h4.666v8.71h23.202v-4.845h-16.958z"/>
  <path d="m173.4 212.89-12.89-13.293h-10.732l4.024 2.91v18.831h10.142l-4.023-3.303v-10.984l14.038 14.287h5.56v-21.741h-6.119z"/>
  <path d="m197.7 207.55c-3.882-0.311-6.398-0.498-6.398-1.957 0-1.553 3.075-1.957 5.621-1.957 2.418 0.022 4.598 0.377 6.53 1.2 0.337 1.096 0.514 1.567 0.926 2.744l4.472-5.465c-2.982-2.112-7.268-3.231-11.928-3.231-6.895 0-11.926 2.547-11.926 7.206 0 4.845 5.871 6.274 12.331 6.833 4.472 0.372 6.212 0.838 6.212 2.236 0 1.429-1.864 2.112-5.591 2.112-4.348 0-7.921-1.211-10.498-3.386l-3.323 3.914c3.416 2.734 8.106 4.256 13.697 4.256 7.889 0 12.019-3.045 12.019-7.517 0-5.001-5.031-6.398-12.144-6.988z"/>
  <path d="m57.598 194.63h6.5448v-7.127h6.6423l5.965 7.127h7.6418l-6.6433-7.675c3.5473-1.031 5.9342-3.417 5.9342-7.19 0-5.158-4.4822-7.706-10.253-7.706h-19.855l4.024 2.898zm6.513-17.573h8.8342c2.3539 0 4.0634 0.645 4.0634 2.837 0 2.193-1.7095 2.838-4.0634 2.838h-8.8342z"/>
  <path d="m101.43 195.37c8.931 0 14.735-4.385 14.735-12.027s-5.804-12.026-14.735-12.026c-8.9319 0-14.703 4.384-14.703 12.026s5.7721 12.027 14.703 12.027zm0-18.701c4.965 0 8.029 2.418 8.029 6.674 0 4.257-3.064 6.674-8.029 6.674-4.9657 0-8.0288-2.417-8.0288-6.674 0-4.256 3.0949-6.674 8.0288-6.674z"/>
  <path d="m126.39 194.63h6.577v-7.61l10.608-14.961h-7.318l-6.546 9.738-6.578-9.738h-7.351l10.608 14.961z"/>
  <path d="m162.6 194.63h6.998l-11.673-22.571h-7.19l-11.67 22.571h6.898l2.129-4.321h12.381zm-12.251-8.996 3.933-7.997 3.902 7.997z"/>
  <path d="m172.47 194.63h21.764v-9.312l-2.901 4.024h-12.285v-17.282h-10.601l4.023 2.901z"/>
  <path d="m247.8 1e-4 -96.3 40.513c-1.558 8.3126-5.09 12.206-5.09 12.206l-11.378 6.7269c-1.684-2.2747-2.466-5.371-2.571-6.3201 0 0 1.309 1.0045 2.796 0.4215-1.537-0.9463-2.7-3.6724-2.11-5.0968 0.678-1.6345 5.845-3.6007 6.884-4.2212 1.818-1.0866 1.63-2.5277 1.552-3.0812 0 0-1.396 0.8311-3.657 1.4295-2.261 0.5985-6.482 1.3355-6.482 1.3355 2.218-3.862 2.877-5.0258 4.551-5.833 1.677-0.8061 4.702-2.2801 5.311-2.1438l1.367 0.5104c-0.069-0.7721-0.544-2.1652-1.425-2.5911-1.111-0.5369-3.85-0.3672-6.059 0.2587-2.273 0.644-6.873 2.186-6.873 2.186s-4.697-0.8405-7.678-0.5381c-3.441 0.3492-8.311 1.9947-8.924 7.7595 0 0-0.418 2.9122-2.845 5.1065 0 0 1.114 0.2494 2.278-0.216 0.436-0.1745 0.747-0.3743 0.935-0.5125-1.012 2.0188-2.724 4.7908-4.75 5.4628 0 0 2.832 0.9304 4.752-8e-3 -0.046 0.5859 1.185 1.6814 1.278 2.1789 0.143 0.7579-0.189 2.2737-1.794 4.2101-2.606-1.2923-7.321-4.8304-10.183-7.0246 0 0-3.5327-3.8934-5.0905-12.206l-96.3-40.513 15.968 25.41 58.579 20.129-47.146-11.095 11.926 17.428 37.644 12.597-26.938-4.7208 10.007 15.247 24.178 6.429-3.3262 3.741 26.459 16.714-8.6508 20.641 25.201 18.767 11.479-8.551-0.342-7.358 2.724 5.581 4.344-3.234-1.316-10.907 3.315 9.439 4.998-3.739-8.575-20.47 26.385-16.882-3.326-3.742 24.177-6.429 10.007-15.247-26.938 4.7207 37.645-12.597 11.925-17.428-47.146 11.096 58.58-20.129zm-125.81 40.286c0.6-0.6012 4.099-0.7721 4.099-0.7721s-1.78 2.4834-3.332 2.3787c-1.189-0.0803-1.262-1.1103-0.767-1.6066zm1.91 22.107 2.928 6.9008-2.928 2.335-2.956-2.3zm-11.98 28.595 1.057-2.641h21.858l1.057 2.641zm22.663-4.764h-2.795l4.041-6.218-1.42-3.08-1.666 0.377 0.924 1.672-3.918 7.249h-2.513l3.43-7.218-2.575-4.656-2.572 2.094-0.456 9.78h-2.314l-0.457-9.78-2.572-2.094-2.574 4.656 3.43 7.218h-2.514l-3.918-7.249 0.925-1.672-1.667-0.377-1.42 3.08 4.042 6.218h-2.795l-4.295-5.914 2.965-6.432 4.501 1.018 2.537-4.588 4.969 4.044 4.969-4.044 2.536 4.588 4.501-1.018 2.966 6.432z"/>
  <path d="m143.25 128.42h-0.723v-0.371h1.849v0.371h-0.723v1.908h-0.403z"/>
  <path d="m144.8 128.05h0.427l0.694 1.077 0.693-1.077h0.426v2.279h-0.401v-1.634l-0.719 1.074h-0.013l-0.712-1.068v1.628h-0.395z"/>
  <path d="m58.911 160.08v-0.028c0-2.752 2.334-5.005 5.6543-5.005 2.021 0 3.2423 0.622 4.292 1.507l-1.2374 1.258c-0.8771-0.718-1.8171-1.203-3.0702-1.203-2.0828 0-3.6177 1.521-3.6177 3.416v0.027c0 1.895 1.5193 3.43 3.6177 3.43 1.3472 0 2.2087-0.47 3.1487-1.245l1.237 1.106c-1.1434 1.051-2.3964 1.715-4.4481 1.715-3.1955 0-5.5763-2.199-5.5763-4.978z"/>
  <path d="m81.114 155.14h1.7859l4.8239 9.748h-2.036l-1.1121-2.337h-5.1843l-1.1282 2.337h-1.9732zm2.7567 5.903-1.8951-3.871-1.8796 3.871z"/>
  <path d="m95.877 155.21h4.8867c1.379 0 2.459 0.36 3.164 0.969 0.58 0.525 0.909 1.244 0.909 2.088v0.027c0 1.591-1.081 2.544-2.6 2.931l2.96 3.664h-2.287l-2.694-3.373h-2.4117v3.373h-1.9269zm4.7457 4.798c1.379 0 2.256-0.635 2.256-1.618v-0.027c0-1.037-0.846-1.604-2.271-1.604h-2.8037v3.249z"/>
  <path d="m112.99 160.08v-0.028c0-2.723 2.381-5.005 5.749-5.005 3.367 0 5.717 2.253 5.717 4.978v0.027c0 2.724-2.381 5.006-5.749 5.006-3.367 0-5.717-2.254-5.717-4.978zm9.445 0v-0.028c0-1.88-1.55-3.443-3.728-3.443-2.177 0-3.696 1.535-3.696 3.416v0.027c0 1.88 1.551 3.43 3.728 3.43s3.696-1.522 3.696-3.402z"/>
  <path d="m133.06 155.21h1.926v8.131h5.763v1.548h-7.689z"/>
  <path d="m149.14 155.21h1.927v9.679h-1.927z"/>
  <path d="m160.27 155.21h1.785l5.873 6.693v-6.693h1.896v9.679h-1.614l-6.046-6.886v6.886h-1.894z"/>
  <path d="m182.8 155.14h1.786l4.824 9.748h-2.036l-1.112-2.337h-5.185l-1.127 2.337h-1.974zm2.757 5.903-1.895-3.871-1.88 3.871z"/>
 </g>
</svg>
